<svg xmlns="http://www.w3.org/2000/svg" version="1.1" xmlns:xlink="http://www.w3.org/1999/xlink" xmlns:svgjs="http://svgjs.dev/svgjs" width="1440" height="560" preserveAspectRatio="none" viewBox="0 0 1440 560"><g mask="url(&quot;#SvgjsMask1033&quot;)" fill="none"><rect width="1440" height="560" x="0" y="0" fill="rgba(10, 17, 40, 1)"></rect><path d="M1390 25L1389 -262" stroke-width="6" stroke="url(&quot;#SvgjsLinearGradient1034&quot;)" stroke-linecap="round" class="Up"></path><path d="M974 6L973 216" stroke-width="6" stroke="url(&quot;#SvgjsLinearGradient1035&quot;)" stroke-linecap="round" class="Down"></path><path d="M673 297L672 122" stroke-width="8" stroke="url(&quot;#SvgjsLinearGradient1035&quot;)" stroke-linecap="round" class="Down"></path><path d="M1017 135L1016 -57" stroke-width="10" stroke="url(&quot;#SvgjsLinearGradient1035&quot;)" stroke-linecap="round" class="Down"></path><path d="M679 490L678 157" stroke-width="6" stroke="url(&quot;#SvgjsLinearGradient1034&quot;)" stroke-linecap="round" class="Up"></path><path d="M48 474L47 751" stroke-width="10" stroke="url(&quot;#SvgjsLinearGradient1034&quot;)" stroke-linecap="round" class="Up"></path><path d="M867 555L866 777" stroke-width="10" stroke="url(&quot;#SvgjsLinearGradient1034&quot;)" stroke-linecap="round" class="Up"></path><path d="M831 182L830 352" stroke-width="6" stroke="url(&quot;#SvgjsLinearGradient1035&quot;)" stroke-linecap="round" class="Down"></path><path d="M1047 215L1046 -129" stroke-width="6" stroke="url(&quot;#SvgjsLinearGradient1035&quot;)" stroke-linecap="round" class="Down"></path><path d="M1429 345L1428 624" stroke-width="10" stroke="url(&quot;#SvgjsLinearGradient1034&quot;)" stroke-linecap="round" class="Up"></path><path d="M1355 245L1354 549" stroke-width="6" stroke="url(&quot;#SvgjsLinearGradient1034&quot;)" stroke-linecap="round" class="Up"></path><path d="M428 46L427 300" stroke-width="10" stroke="url(&quot;#SvgjsLinearGradient1035&quot;)" stroke-linecap="round" class="Down"></path><path d="M336 321L335 180" stroke-width="6" stroke="url(&quot;#SvgjsLinearGradient1034&quot;)" stroke-linecap="round" class="Up"></path><path d="M306 293L305 4" stroke-width="6" stroke="url(&quot;#SvgjsLinearGradient1034&quot;)" stroke-linecap="round" class="Up"></path><path d="M1180 323L1179 154" stroke-width="10" stroke="url(&quot;#SvgjsLinearGradient1035&quot;)" stroke-linecap="round" class="Down"></path><path d="M815 531L814 283" stroke-width="8" stroke="url(&quot;#SvgjsLinearGradient1035&quot;)" stroke-linecap="round" class="Down"></path><path d="M362 208L361 63" stroke-width="10" stroke="url(&quot;#SvgjsLinearGradient1034&quot;)" stroke-linecap="round" class="Up"></path><path d="M319 298L318 524" stroke-width="10" stroke="url(&quot;#SvgjsLinearGradient1035&quot;)" stroke-linecap="round" class="Down"></path><path d="M1156 451L1155 605" stroke-width="6" stroke="url(&quot;#SvgjsLinearGradient1034&quot;)" stroke-linecap="round" class="Up"></path><path d="M4 178L3 29" stroke-width="8" stroke="url(&quot;#SvgjsLinearGradient1035&quot;)" stroke-linecap="round" class="Down"></path><path d="M1175 481L1174 869" stroke-width="8" stroke="url(&quot;#SvgjsLinearGradient1035&quot;)" stroke-linecap="round" class="Down"></path><path d="M154 212L153 -52" stroke-width="10" stroke="url(&quot;#SvgjsLinearGradient1034&quot;)" stroke-linecap="round" class="Up"></path><path d="M1128 481L1127 898" stroke-width="10" stroke="url(&quot;#SvgjsLinearGradient1034&quot;)" stroke-linecap="round" class="Up"></path><path d="M322 472L321 664" stroke-width="6" stroke="url(&quot;#SvgjsLinearGradient1034&quot;)" stroke-linecap="round" class="Up"></path><path d="M91 215L90 -62" stroke-width="10" stroke="url(&quot;#SvgjsLinearGradient1035&quot;)" stroke-linecap="round" class="Down"></path><path d="M806 15L805 -277" stroke-width="6" stroke="url(&quot;#SvgjsLinearGradient1034&quot;)" stroke-linecap="round" class="Up"></path><path d="M495 22L494 -154" stroke-width="10" stroke="url(&quot;#SvgjsLinearGradient1034&quot;)" stroke-linecap="round" class="Up"></path><path d="M1359 269L1358 572" stroke-width="6" stroke="url(&quot;#SvgjsLinearGradient1035&quot;)" stroke-linecap="round" class="Down"></path><path d="M612 472L611 869" stroke-width="6" stroke="url(&quot;#SvgjsLinearGradient1035&quot;)" stroke-linecap="round" class="Down"></path><path d="M315 449L314 775" stroke-width="10" stroke="url(&quot;#SvgjsLinearGradient1035&quot;)" stroke-linecap="round" class="Down"></path><path d="M1224 469L1223 886" stroke-width="8" stroke="url(&quot;#SvgjsLinearGradient1035&quot;)" stroke-linecap="round" class="Down"></path><path d="M1281 135L1280 -121" stroke-width="6" stroke="url(&quot;#SvgjsLinearGradient1035&quot;)" stroke-linecap="round" class="Down"></path><path d="M353 519L352 278" stroke-width="6" stroke="url(&quot;#SvgjsLinearGradient1034&quot;)" stroke-linecap="round" class="Up"></path><path d="M917 495L916 123" stroke-width="10" stroke="url(&quot;#SvgjsLinearGradient1035&quot;)" stroke-linecap="round" class="Down"></path><path d="M1278 383L1277 800" stroke-width="8" stroke="url(&quot;#SvgjsLinearGradient1034&quot;)" stroke-linecap="round" class="Up"></path><path d="M1422 76L1421 375" stroke-width="10" stroke="url(&quot;#SvgjsLinearGradient1035&quot;)" stroke-linecap="round" class="Down"></path></g><defs><mask id="SvgjsMask1033"><rect width="1440" height="560" fill="#ffffff"></rect></mask><linearGradient x1="0%" y1="100%" x2="0%" y2="0%" id="SvgjsLinearGradient1034"><stop stop-color="rgba(28, 83, 142, 0)" offset="0"></stop><stop stop-color="rgba(28, 83, 142, 0.23)" offset="1"></stop></linearGradient><linearGradient x1="0%" y1="0%" x2="0%" y2="100%" id="SvgjsLinearGradient1035"><stop stop-color="rgba(28, 83, 142, 0)" offset="0"></stop><stop stop-color="rgba(28, 83, 142, 0.23)" offset="1"></stop></linearGradient></defs></svg>